<?xml version="1.0" encoding="utf-8"?>
<!-- Generator: Adobe Illustrator 16.0.0, SVG Export Plug-In . SVG Version: 6.00 Build 0)  -->
<!DOCTYPE svg PUBLIC "-//W3C//DTD SVG 1.1//EN" "http://www.w3.org/Graphics/SVG/1.1/DTD/svg11.dtd">
<svg version="1.1" id="Layer_1" xmlns="http://www.w3.org/2000/svg" xmlns:xlink="http://www.w3.org/1999/xlink" x="0px" y="0px"
	 width="685.5px" height="380.618px" viewBox="0 0 685.5 380.618" enable-background="new 0 0 685.5 380.618" xml:space="preserve">
<path fill="#B35E27" stroke="#351B1B" stroke-width="0.5" stroke-miterlimit="10" d="M521.553,43.597
	c1.564-16.699-9.916-36.005-30.785-29.743c-20.871,6.262-16.701,62.617-16.701,62.617
	c-43.311,119.493-126.525,153.093-126.525,153.093l0.002,0.022l-0.002-0.009H219.334v150.042h141.17H379.1
	c53.224-12.523,190.457-184.697,190.457-184.697s46.447-14.089,46.443-79.832C615.998,36.3,521.553,43.597,521.553,43.597z"/>
<path fill="#B35E27" stroke="#351B1B" stroke-width="0.5" stroke-miterlimit="10" d="M360.67,379.618H2
	c0,0,60.009-127.807,120.537-141.915l225.17-8.141"/>
<path fill="#262F98" stroke="#351B1B" stroke-width="0.5" stroke-miterlimit="10" d="M94.621,251.583l15.393,100.9l-13.046,27.135
	h266.644l-6.785-20.873l-3.152-132.02l-5.968,2.838c0,0-17.498,29.328-44.049,35.424c0,0,6.207,45.754-17.275,43.667
	c-23.481-2.09-116.362-1.045-116.362-1.045s-16.497-13.254-15.814-45.762c0,0-25.185-10.438-34.54-23.387
	C119.667,238.459,94.275,249.318,94.621,251.583z"/>
<path fill="#EEC145" stroke="#351B1B" stroke-width="0.5" stroke-miterlimit="10" d="M151.234,342.567
	c0,6.918-5.957,12.525-13.304,12.525c-7.349,0-13.306-5.607-13.306-12.525c0-6.914,5.958-12.521,13.306-12.521
	C145.277,330.046,151.234,335.653,151.234,342.567z"/>
<path fill="#EEC145" stroke="#351B1B" stroke-width="0.5" stroke-miterlimit="10" d="M338.825,342.567
	c0,6.918-5.959,12.525-13.303,12.525c-7.35,0-13.309-5.607-13.309-12.525c0-6.914,5.959-12.521,13.309-12.521
	C332.866,330.046,338.825,335.653,338.825,342.567z"/>
<path fill="#B56028" stroke="#351B1B" stroke-width="0.5" stroke-miterlimit="10" d="M400.662,58.544
	c0-31.229-28.27-56.544-63.14-56.544c-17.926,0-34.069,6.72-45.563,17.461c-17.403-8.099-36.906-12.65-57.476-12.65
	c-22.752,0-44.713,5.268-64.28,14.728C158.627,9.59,141.588,2,122.537,2c-34.872,0-63.14,25.315-63.14,56.544
	c0,23.041,15.413,42.827,37.488,51.638c-2.305,9.604-3.57,19.655-3.57,30.096c0,89.087,28.178,133.655,141.169,133.465
	C338.724,273.569,361,238.757,366.22,140.278c0.557-10.485-0.245-20.679-2.171-30.474C385.65,100.822,400.662,81.277,400.662,58.544
	z"/>
<ellipse fill="#141411" cx="192.72" cy="133.324" rx="14.872" ry="13.046"/>
<ellipse fill="#141411" cx="269.163" cy="133.324" rx="14.872" ry="13.046"/>
<ellipse fill="#141411" cx="230.551" cy="158.893" rx="19.828" ry="11.479"/>
<path fill="none" stroke="#13120F" stroke-width="8" stroke-linecap="round" stroke-miterlimit="10" d="M230.551,161.503v26.612
	c0,0-20.874,20.874-37.832-6.262"/>
<path fill="none" stroke="#13120F" stroke-width="8" stroke-linecap="round" stroke-miterlimit="10" d="M231.465,161.503v26.612
	c0,0,20.873,20.874,37.83-6.262"/>
<path fill="#13120F" d="M106.296,80.112c-8.055-4.932-13.372-13.424-13.372-23.075c0-15.238,13.257-27.59,29.613-27.59
	c7.139,0,16.819,2.354,21.933,6.274L106.296,80.112z"/>
<path fill="#131211" d="M357.867,80.112c8.057-4.932,13.374-13.424,13.374-23.075c0-15.238-13.257-27.59-29.615-27.59
	c-7.136,0-16.816,2.354-21.931,6.274L357.867,80.112z"/>
</svg>
