<?xml version="1.0" encoding="utf-8"?>
<!-- Generator: Adobe Illustrator 16.0.0, SVG Export Plug-In . SVG Version: 6.00 Build 0)  -->
<!DOCTYPE svg PUBLIC "-//W3C//DTD SVG 1.1//EN" "http://www.w3.org/Graphics/SVG/1.1/DTD/svg11.dtd">
<svg version="1.1" id="Layer_1" xmlns="http://www.w3.org/2000/svg" xmlns:xlink="http://www.w3.org/1999/xlink" x="0px" y="0px"
	 width="322px" height="288px" viewBox="0 0 322 288" enable-background="new 0 0 322 288" xml:space="preserve">
<g>
	<path fill="#EEC24A" d="M64.059,180.233c0,0-57.355,7.245-55.051-50.194c2.305-57.444,91.4-36.427,107.773-7.63
		c16.369,28.798-9.789,44.87-9.789,44.87S103.723,173.092,64.059,180.233z"/>
	<path fill="#EEC24A" d="M158.723,232.655c0,0-15.297,55.752-67.464,31.604c-52.172-24.15,1.396-98.383,34.269-102.465
		c32.873-4.079,37.689,26.242,37.689,26.242S167.332,193.285,158.723,232.655z"/>
	<path fill="#EEC24A" d="M244.569,204.549c0,0,31.205,48.668-21.645,71.286c-52.854,22.621-72.189-66.856-53.23-94.021
		c18.961-27.162,44.719-10.457,44.719-10.457S221.068,171.811,244.569,204.549z"/>
	<path fill="#EEC24A" d="M246.958,102.7c0,0,55.678-15.565,61.807,41.594c6.13,57.162-85.084,49.414-105.495,23.324
		c-20.409-26.092,3.113-45.819,3.113-45.819S208.768,115.569,246.958,102.7z"/>
	<path fill="#EEC24A" d="M174.698,44.111c0,0,26.886-51.181,72.669-16.413c45.785,34.768-22.445,95.798-55.43,92.74
		c-32.984-3.058-31.191-33.706-31.191-33.706S157.851,80.722,174.698,44.111z"/>
	<path fill="#EEC24A" d="M80.842,92.61c0,0-44-37.5,0-74.5s88.5,43,78.25,74.5c-10.25,31.5-39.75,23-39.75,23
		S112.842,117.11,80.842,92.61z"/>
	<path fill="#FFFFFF" d="M85.109,92.61c0,0-44-37.5,0-74.5s88.5,43,78.25,74.5s-39.75,23-39.75,23S117.109,117.11,85.109,92.61z"/>
	<path fill="#FFFFFF" d="M175.198,40.111c0,0,26.886-51.181,72.669-16.413c45.785,34.768-22.445,95.799-55.43,92.74
		c-32.984-3.058-31.191-33.707-31.191-33.707S158.351,76.722,175.198,40.111z"/>
	<path fill="#FFFFFF" d="M250.958,101.002c0,0,55.678-15.565,61.807,41.594c6.13,57.162-85.084,49.414-105.495,23.324
		c-20.409-26.092,3.113-45.819,3.113-45.819S212.768,113.871,250.958,101.002z"/>
	<path fill="#FFFFFF" d="M248.546,204.549c0,0,31.205,48.668-21.645,71.286c-52.854,22.621-72.189-66.856-53.23-94.021
		c18.961-27.162,44.719-10.457,44.719-10.457S225.045,171.811,248.546,204.549z"/>
	<path fill="#FFFFFF" d="M157.103,239.655c0,0-15.296,55.752-67.464,31.604c-52.172-24.15,1.396-98.383,34.269-102.465
		c32.874-4.079,37.689,26.242,37.689,26.242S165.713,200.285,157.103,239.655z"/>
	<path fill="#FFFFFF" d="M68.545,182.151c0,0-57.356,7.245-55.052-50.194c2.305-57.444,91.401-36.428,107.774-7.63
		c16.37,28.798-9.789,44.87-9.789,44.87S108.208,175.01,68.545,182.151z"/>
	<ellipse fill="#EEC24A" cx="163.359" cy="144.11" rx="61.75" ry="56"/>
	<ellipse cx="149.109" cy="124.767" rx="5.5" ry="13.657"/>
	<ellipse cx="174.609" cy="124.767" rx="5.5" ry="13.657"/>
	<path fill="none" stroke="#191414" stroke-width="6" stroke-linecap="round" stroke-linejoin="round" stroke-miterlimit="10" d="
		M119.109,148.11c0,0,41.5,75,91,0"/>
</g>
</svg>
